<svg id="edXWxGglwf21" xmlns="http://www.w3.org/2000/svg" xmlns:xlink="http://www.w3.org/1999/xlink" viewBox="0 0 427.3 498.1" shape-rendering="geometricPrecision" text-rendering="geometricPrecision" project-id="d6810b14c4eb416d9b6767eabd2b6d6d" export-id="8da0cb590aa748468302be52f1232f6d" cached="false"><g transform="translate(-42.358139-6.456157)"><path d="M342.56177,412.536287h-174.176145c45.287462,52.386989,75.663511,86.430671,75.663511,86.430671s11.493232,13.490675,23.164607,0c26.998697-31.207175,37.110436-41.130816,75.348027-86.430671Z" transform="translate(.457633-.457633)" fill="#4da55a" stroke-width="1.024"/><ellipse rx="211.989606" ry="211.989606" transform="matrix(1.007794 0 0 1.011519 256 220.88767)" fill="#4da55a" stroke-width="2"/></g><ellipse rx="146.700163" ry="146.700163" transform="matrix(1.156085 0 0 1.167294 213.64186 213.915255)" fill="#fff" stroke-width="2"/><g transform="translate(-42.358139-6.456158)"><path d="M290.798725,289.096726L322.5286,277.998385l12.331116,35.174837q.972047,2.996489,3.983091,2.642248t58.145764,0c-6.267878,9.614624-20.383756,26.501822-29.498751,33.598228h-32.630104q-21.654813-1.050301-29.444546-19.43057-.000001-.000001-14.616445-40.886402Z" transform="translate(.000001 0)" fill="#56777d" stroke-width="1.024"/><path d="M175.76438,225.464811l-32.401384,11.300483q-8.974212,3.303503-5.900252,13.000555.082091.258963,10.700457,29.601264q3.349516,6.857693,12.96196,2.924416q0,0,31.563642-11.367913L175.76438,225.464811Z" transform="translate(0 0.000001)" fill="#aac7c8" stroke-width="1.024"/><path d="M256,256l12.406194,37.644756c2.587545,7.664615,14.266191,11.084973,21.554582,7.966477l47.257745-17.927486c4.133014-2.384598,7.715173-10.015636,5.200756-17.906631l-13.143303-34.845448L256,256Z" fill="#aac7c8" stroke-width="1.024"/><path d="M161.125161,195.506468l25.622431,76.454435c3.728237,11.589122,17.156066,17.989173,26.632163,13.454619l143.625672-49.872517c7.327731-3.149245,11.350059-15.441072,8.252873-24.468473L341.413712,148.32164L161.125161,195.506468Z" fill="#c0dadc" stroke-width="1.024"/><path d="M148.1632,172.615301q15.690073-5.34422,173.215353-60.400513c11.993264-2.734706,19.967117,1.211058,24.63965,11.79655q0,0,10.919182,30.496176c2.827141,7.618787,7.547645,23.538772-6.105261,29.679305q0,0-136.283061,46.639989c-8.253516,3.288604-14.989566,2.880359-26.866026-5.361997c0,0-44.320042-30.063203-44.320042-30.063203-5.492332-3.248884-14.269821-16.290836,4.800205-22.786307Z" transform="translate(.068042 0.10486)" fill="#aac7c8" stroke-width="1.024"/></g></svg>
